# xmcd
#
# Track frame offsets: 
#        150
#        12550
#        26297
#        44695
#        55492
#        64915
#        74430
#        84702
#        95150
#        111490
#        134587
#        146002
#        157402
#        169380
#        189197
#        203700
#        222435
#        250350
#
# Disc length: 3825 seconds
#
# Revision: 1
# Processed by: cddbd v1.5.2PL0 Copyright (c) Steve Scherf et al.
# Submitted via: ExactAudioCopy v0.99pb5
#
DISCID=260eef12
DTITLE=Janis Joplin - Janis {Columbia Legacy Box} [CD 1)
DYEAR=1993
DGENRE=Rock
TTITLE0=What Good Can Drinkin' Do
TTITLE1=Trouble In Mind
TTITLE2=Hesitation Blues (previously unissued)
TTITLE3=Easy Rider
TTITLE4=Coo Coo
TTITLE5=Down On Me
TTITLE6=The Last Time
TTITLE7=All Is Lonliness
TTITLE8=Call On Me (previously unissued, live)
TTITLE9=Women Is Losers (previously unissued, live)
TTITLE10=Intruder
TTITLE11=Light Is Faster Than Sound
TTITLE12=Bye, Bye Baby
TTITLE13=Farewell Song
TTITLE14=Flower In The Sun (live)
TTITLE15=Misery'n (previously unissued, alternate version)
TTITLE16=Road Block (previously unissued, live)
TTITLE17=Ball And Chain (previously unissued, live)
EXTD=
EXTT0=
EXTT1=
EXTT2=
EXTT3=
EXTT4=
EXTT5=
EXTT6=
EXTT7=
EXTT8=
EXTT9=
EXTT10=
EXTT11=
EXTT12=
EXTT13=
EXTT14=
EXTT15=
EXTT16=
EXTT17=
PLAYORDER=
